<?xml version="1.0" encoding="UTF-8"?>
<svg version="1.1" xmlns="http://www.w3.org/2000/svg" viewBox="0 0 988 330">
<path d="M0 0 C2.5402592 0.01610848 5.07892838 0.00002329 7.61914062 -0.01904297 C22.18623374 -0.03889597 36.51006356 1.51400152 50.35351562 6.26611328 C51.1442749 6.52875977 51.93503418 6.79140625 52.74975586 7.06201172 C55.01891245 7.8235511 57.28002839 8.60572872 59.54101562 9.39111328 C60.68054688 9.77009766 61.82007813 10.14908203 62.99414062 10.53955078 C82.11944212 17.31509729 99.30302898 29.03846579 113.91992188 42.94580078 C116.48619941 45.40316628 116.48619941 45.40316628 119.18554688 47.50048828 C122.80133212 50.4027106 125.59251057 53.82741262 128.54101562 57.39111328 C128.95158203 57.88401855 129.36214844 58.37692383 129.78515625 58.88476562 C151.81830901 85.5068144 167.54128074 119.84237681 167.74414062 154.85205078 C167.7498407 155.64149078 167.75554077 156.43093079 167.76141357 157.24429321 C167.77080524 158.9099191 167.77737415 160.57556308 167.78125 162.24121094 C167.7908571 164.725126 167.82189479 167.20817637 167.85351562 169.69189453 C167.95130439 184.32040304 166.21273022 198.52517533 161.79101562 212.51611328 C161.53497559 213.34393311 161.27893555 214.17175293 161.01513672 215.0246582 C158.44501841 223.09055391 155.24996237 230.78728315 151.54101562 238.39111328 C151.23437988 239.02355957 150.92774414 239.65600586 150.61181641 240.30761719 C143.89972835 253.95796526 135.46110461 265.76081568 124.98632812 276.77001953 C122.52896262 279.33629707 122.52896262 279.33629707 120.43164062 282.03564453 C117.5294183 285.65142978 114.10471629 288.44260822 110.54101562 291.39111328 C110.04811035 291.80167969 109.55520508 292.21224609 109.04736328 292.63525391 C82.4253145 314.66840667 48.08975209 330.3913784 13.08007812 330.59423828 C12.29063812 330.59993835 11.50119812 330.60563843 10.68783569 330.61151123 C9.0222098 330.62090289 7.35656583 330.6274718 5.69091797 330.63134766 C3.20700291 330.64095475 0.72395254 330.67199244 -1.75976562 330.70361328 C-16.38827414 330.80140205 -30.59304642 329.06282788 -44.58398438 324.64111328 C-45.4118042 324.38507324 -46.23962402 324.1290332 -47.0925293 323.86523438 C-55.16000354 321.29461308 -62.85062552 318.09321978 -70.45898438 314.39111328 C-71.39967773 313.93913574 -71.39967773 313.93913574 -72.359375 313.47802734 C-85.74208699 306.96584257 -97.50854191 298.4530976 -108.38867188 288.30908203 C-110.09480092 286.72849833 -111.82181427 285.2663769 -113.64648438 283.82861328 C-117.3249669 280.6405951 -120.36729248 277.14362481 -123.45898438 273.39111328 C-123.87341797 272.88902344 -124.28785156 272.38693359 -124.71484375 271.86962891 C-146.52545351 245.27516246 -162.4710697 211.42894304 -162.66210938 176.49267578 C-162.66780945 175.65884369 -162.67350952 174.8250116 -162.67938232 173.96591187 C-162.68877834 172.20612838 -162.69534466 170.44632774 -162.69921875 168.68652344 C-162.70883203 166.05777193 -162.73986848 163.42983515 -162.77148438 160.80126953 C-162.86570933 145.90724709 -161.21308755 131.51619055 -156.70898438 117.26611328 C-156.45294434 116.43901855 -156.1969043 115.61192383 -155.93310547 114.75976562 C-147.95734779 89.74598189 -133.89296559 68.79013906 -116.45898438 49.39111328 C-115.85699219 48.71564453 -115.255 48.04017578 -114.63476562 47.34423828 C-85.64333705 16.67320553 -41.63039525 -0.31246832 0 0 Z " fill="#FBA74B" transform="translate(162.458984375,-0.39111328125)"/>
<path d="M0 0 C4.69340426 0.50881766 7.85236501 2.64676208 11.5625 5.375 C12.1702124 5.81473145 12.7779248 6.25446289 13.40405273 6.70751953 C18.73447814 10.64381235 23.58236411 14.99098721 28.37890625 19.5546875 C30.94518379 22.012053 30.94518379 22.012053 33.64453125 24.109375 C37.2603165 27.01159732 40.05149494 30.43629934 43 34 C43.41056641 34.49290527 43.82113281 34.98581055 44.24414062 35.49365234 C66.27729339 62.11570112 82.00026512 96.45126353 82.203125 131.4609375 C82.20882507 132.2503775 82.21452515 133.0398175 82.22039795 133.85317993 C82.22978961 135.51880582 82.23635852 137.1844498 82.24023438 138.85009766 C82.24984147 141.33401272 82.28087916 143.81706309 82.3125 146.30078125 C82.41028876 160.92928976 80.67171459 175.13406204 76.25 189.125 C75.99395996 189.95281982 75.73791992 190.78063965 75.47412109 191.63354492 C72.90400278 199.69944063 69.70894675 207.39616986 66 215 C65.69336426 215.63244629 65.38672852 216.26489258 65.07080078 216.91650391 C58.35871273 230.56685198 49.92008898 242.3697024 39.4453125 253.37890625 C36.987947 255.94518379 36.987947 255.94518379 34.890625 258.64453125 C31.98840268 262.2603165 28.56370066 265.05149494 25 268 C24.50709473 268.41056641 24.01418945 268.82113281 23.50634766 269.24414062 C-3.11570112 291.27729339 -37.45126353 307.00026512 -72.4609375 307.203125 C-73.2503775 307.20882507 -74.0398175 307.21452515 -74.85317993 307.22039795 C-76.51880582 307.22978961 -78.1844498 307.23635852 -79.85009766 307.24023438 C-82.33401272 307.24984147 -84.81706309 307.28087916 -87.30078125 307.3125 C-101.92928976 307.41028876 -116.13406204 305.67171459 -130.125 301.25 C-130.95281982 300.99395996 -131.78063965 300.73791992 -132.63354492 300.47412109 C-140.70101917 297.9034998 -148.39164114 294.7021065 -156 291 C-156.94069336 290.54802246 -156.94069336 290.54802246 -157.90039062 290.08691406 C-171.28310261 283.57472929 -183.04955753 275.06198431 -193.9296875 264.91796875 C-195.63581654 263.33738505 -197.3628299 261.87526362 -199.1875 260.4375 C-205.12394481 255.29258116 -209.83206571 249.01790282 -214.6875 242.875 C-215.15115967 242.28920166 -215.61481934 241.70340332 -216.0925293 241.09985352 C-224 231.00100169 -224 231.00100169 -224 228 C-217.22960377 228.49239245 -210.85794117 229.88671116 -204.29321289 231.54003906 C-203.59703857 231.71245117 -202.90086426 231.88486328 -202.18359375 232.0625 C-201.26404907 232.29646484 -201.26404907 232.29646484 -200.32592773 232.53515625 C-194.0036122 233.79869029 -187.7816623 234.16681663 -181.35546875 234.203125 C-180.54620438 234.20882507 -179.73694 234.21452515 -178.90315247 234.22039795 C-177.19464398 234.22979274 -175.48611782 234.23635979 -173.77758789 234.24023438 C-171.23223797 234.24983132 -168.68773551 234.28086164 -166.14257812 234.3125 C-150.66556926 234.41379178 -135.70070491 232.57642338 -120.875 228 C-120.03453125 227.7525 -119.1940625 227.505 -118.328125 227.25 C-112.84506897 225.62036106 -107.41586222 223.83953405 -102 222 C-101.97421875 223.22976562 -101.9484375 224.45953125 -101.921875 225.7265625 C-101.86556994 227.35940932 -101.80822315 228.99222045 -101.75 230.625 C-101.73582031 231.43324219 -101.72164063 232.24148437 -101.70703125 233.07421875 C-101.48736602 238.47798335 -100.6029232 241.72645971 -97 246 C-92.55284623 248.96476918 -88.35765015 248.36826557 -83.125 248.375 C-82.13113281 248.39949219 -81.13726562 248.42398438 -80.11328125 248.44921875 C-75.68084482 248.4670197 -72.8215055 248.47450826 -68.9296875 246.2265625 C-64.59928994 241.22994993 -64.66326793 236.98349609 -64.6875 230.625 C-64.67138672 229.78710938 -64.65527344 228.94921875 -64.63867188 228.0859375 C-64.63467679 223.00418386 -65.06514358 219.34142355 -68 215 C-71.39162706 213.17737669 -71.39162706 213.17737669 -75 212 C-76.34125149 211.34941053 -77.67670173 210.68637009 -79 210 C-78.04480469 209.38253906 -77.08960938 208.76507813 -76.10546875 208.12890625 C-68.00484786 202.84314856 -60.32265018 197.34404716 -53 191 C-52.17113281 190.29359375 -51.34226563 189.5871875 -50.48828125 188.859375 C-18.09531011 160.58544728 4.10914607 118.08318339 7.80517578 75.10644531 C8.93822464 57.04013739 9.01619006 38.71848557 5 21 C4.68675781 19.60394531 4.68675781 19.60394531 4.3671875 18.1796875 C2.98632414 12.10071431 1.52876973 6.04340366 0 0 Z " fill="#F9973D" transform="translate(248,23)"/>
<path d="M0 0 C9.40085207 8.07279519 18.23120668 20.34643943 19.4609375 33.11328125 C20.66830754 49.42235905 17.08364094 62.87596801 6.5 75.44140625 C-1.22495795 83.65455857 -10.80612758 89.84769028 -20.3515625 95.73828125 C-27.58962755 100.28211825 -34.27570312 104.97983204 -37.5390625 113.11328125 C-37.96352551 116.49719518 -37.96352551 116.49719518 -37.9765625 119.98828125 C-38.36785974 126.86496798 -39.11834685 131.82971693 -44.1953125 136.703125 C-48.78857044 140.10100639 -53.1924904 140.94310986 -58.8515625 140.66015625 C-63.34793527 139.74519668 -66.61944738 137.63196835 -69.5390625 134.11328125 C-72.67908357 128.38565023 -73.08503516 123.39454133 -73.0390625 116.92578125 C-73.03334229 115.99540039 -73.02762207 115.06501953 -73.02172852 114.10644531 C-72.82722197 106.59076469 -71.51110207 100.59451206 -67.5390625 94.11328125 C-67.06597656 93.33210938 -66.59289062 92.5509375 -66.10546875 91.74609375 C-59.59310502 82.3591954 -49.50421084 76.13722019 -39.7890625 70.48828125 C-30.92353101 65.32978474 -22.13378523 59.57744574 -18.97265625 49.265625 C-17.6167196 42.53480431 -17.38741096 36.069753 -21.1015625 30.11328125 C-25.42846618 24.48321599 -30.73864915 21.97007614 -37.5390625 20.11328125 C-47.49334599 19.10036206 -58.86143865 18.54555728 -67.5390625 24.11328125 C-68.23902344 24.55285156 -68.93898437 24.99242187 -69.66015625 25.4453125 C-75.39955023 29.73087133 -78.07006548 35.45612383 -80.99609375 41.80859375 C-83.76948921 47.74857492 -86.34639845 51.21878322 -91.5390625 55.11328125 C-97.07435048 56.95837724 -103.55592249 57.45833632 -108.96484375 55.01953125 C-114.10958827 51.37654831 -117.80093354 47.15541601 -118.94921875 40.8671875 C-119.71673831 28.56719452 -112.14660623 17.2069228 -104.5390625 8.11328125 C-78.11945779 -19.8490741 -30.61055522 -23.8331449 0 0 Z " fill="#FEFEFD" transform="translate(218.5390625,76.88671875)"/>
<path d="M0 0 C0.77730469 -0.01160156 1.55460937 -0.02320313 2.35546875 -0.03515625 C7.67374265 -0.00834142 11.40721156 0.89513685 16.125 3.375 C20.67099731 8.22406379 20.36652405 13.41795765 20.4375 19.6875 C20.46650391 20.52990234 20.49550781 21.37230469 20.52539062 22.24023438 C20.5819173 27.80158936 19.89665656 31.00886167 16.125 35.375 C11.54669607 39.46397285 7.12769746 38.89032646 1.25 38.875 C0.26902344 38.90335937 -0.71195313 38.93171875 -1.72265625 38.9609375 C-9.79642562 38.98272905 -9.79642562 38.98272905 -13.4453125 36.09375 C-18.24923749 30.71829695 -18.23995983 26.45783578 -18.25 19.5 C-18.27449219 18.61441406 -18.29898438 17.72882813 -18.32421875 16.81640625 C-18.34942131 11.17943349 -17.78815043 7.74223615 -13.875 3.375 C-9.57301867 -0.25336148 -5.37091378 -0.07937311 0 0 Z " fill="#FEFCFA" transform="translate(163.875,233.625)"/>

<g fill="currentColor">
<path d="M0 0 C10.48801722 8.47348718 15.78527092 20.99092069 17.75 34.125 C17.8325 35.40375 17.915 36.6825 18 38 C18.0515625 38.78117187 18.103125 39.56234375 18.15625 40.3671875 C18.70554558 55.79323829 14.7095176 70.59899878 5.25 82.9375 C-3.37459558 92.02207401 -14.7135443 96.27904815 -26.9609375 96.9921875 C-36.63935094 97.01706774 -44.79656699 94.09514858 -53 89 C-54.32 87.68 -55.64 86.36 -57 85 C-57.33 104.14 -57.66 123.28 -58 143 C-63.259375 143.020625 -68.51875 143.04125 -73.9375 143.0625 C-75.599021 143.071604 -77.26054199 143.08070801 -78.97241211 143.09008789 C-80.26928955 143.09258545 -81.56616699 143.09508301 -82.90234375 143.09765625 C-83.58816528 143.10277222 -84.27398682 143.10788818 -84.98059082 143.11315918 C-86.65415231 143.11347054 -88.3275958 143.06222837 -90 143 C-91.77674949 141.22325051 -91.12615707 138.63389584 -91.12698364 136.2298584 C-91.12980347 134.97621994 -91.13262329 133.72258148 -91.13552856 132.43095398 C-91.13358397 131.02883897 -91.13153578 129.6267241 -91.12939453 128.22460938 C-91.13074852 126.75812232 -91.13252845 125.2916356 -91.13470459 123.82514954 C-91.13927916 119.8314589 -91.13748927 115.83779397 -91.1343255 111.84410286 C-91.13180202 107.67385918 -91.13413941 103.50361778 -91.13571167 99.33337402 C-91.1375334 92.32885338 -91.13512697 85.32434327 -91.13037109 78.31982422 C-91.12492847 70.20994711 -91.12669112 62.10009514 -91.1321975 53.99021864 C-91.13672853 47.03991972 -91.13737923 40.08962839 -91.13475883 33.13932848 C-91.133196 28.98266723 -91.13300245 24.8260178 -91.13629532 20.6693573 C-91.13917389 16.76243596 -91.1371986 12.85554718 -91.13140106 8.94862938 C-91.13007339 7.51064801 -91.13046771 6.07266392 -91.13266373 4.63468361 C-91.13537491 2.67983724 -91.1313807 0.72498491 -91.12698364 -1.2298584 C-91.12660662 -2.32641502 -91.12622959 -3.42297165 -91.12584114 -4.55275726 C-91 -7 -91 -7 -90 -8 C-87.6243148 -8.0883967 -85.27791326 -8.11530305 -82.90234375 -8.09765625 C-81.83905602 -8.09553383 -81.83905602 -8.09553383 -80.75428772 -8.09336853 C-78.48198288 -8.08775443 -76.20977525 -8.07519963 -73.9375 -8.0625 C-72.40039204 -8.05748681 -70.86328255 -8.05292359 -69.32617188 -8.04882812 C-65.55074358 -8.03778042 -61.77538829 -8.02050641 -58 -8 C-57.505 -2.555 -57.505 -2.555 -57 3 C-55.865625 1.9275 -54.73125 0.855 -53.5625 -0.25 C-38.14508243 -13.7539083 -15.85164572 -11.33406034 0 0 Z M-54 28.3125 C-58.15728853 35.09931026 -59.18180635 43.039244 -57.34765625 50.73828125 C-54.98935897 58.218031 -51.75432905 62.10736611 -45.14453125 66.12890625 C-40.23488847 68.12316917 -33.89832302 67.88810999 -28.87109375 66.34765625 C-23.44007571 63.51672291 -19.13297646 58.80344004 -16.85546875 53.16796875 C-14.76970715 45.44398401 -14.93885719 37.10582752 -18.66796875 29.9375 C-22.23134982 24.75440027 -26.78395941 21.26857971 -33 20 C-41.10814243 19.05405005 -48.85301496 21.69277883 -54 28.3125 Z " transform="translate(780,135)"/>
<path d="M0 0 C10.89 0 21.78 0 33 0 C33.33 13.86 33.66 27.72 34 42 C36.64 40.02 39.28 38.04 42 36 C53.00875815 30.23501187 65.16027018 29.56092568 77 33 C88.00422078 37.21088269 93.60667634 43.39386443 98.73828125 53.83984375 C102.35148544 62.88963381 102.2631823 71.49308352 102.1953125 81.09375 C102.19157684 82.65173154 102.18873248 84.20971545 102.18673706 85.7677002 C102.17914408 89.84475323 102.15953344 93.92166108 102.1373291 97.99865723 C102.11315565 102.9029948 102.10406902 107.80738123 102.09242249 112.71176147 C102.07310602 120.14127492 102.03475352 127.57047056 102 135 C91.11 135 80.22 135 69 135 C68.97421875 130.6171875 68.9484375 126.234375 68.921875 121.71875 C68.89016326 118.20739602 68.85451111 114.69613085 68.81620789 111.18484497 C68.77694931 107.48746934 68.74451225 103.79033144 68.72900391 100.09277344 C68.71377536 96.52630417 68.67922247 92.96048219 68.63169098 89.39430237 C68.6097991 87.38271962 68.6075316 85.37095392 68.60565186 83.35925293 C68.49066249 76.12420176 67.99664883 71.10950353 64 65 C59.45312574 60.87609079 54.98214164 59.9164797 49 60 C43.43322799 60.92779533 40.52639892 62.59200135 37 67 C33.14417383 73.70921946 33.52563278 80.43903794 33.48828125 88.02734375 C33.47141401 89.38499047 33.45326104 90.74262177 33.43388367 92.10023499 C33.38659877 95.65275247 33.35665118 99.20520741 33.33044434 102.75793457 C33.30052938 106.39148217 33.25419565 110.02481896 33.20898438 113.65820312 C33.1216593 120.7721509 33.06153228 127.88559553 33 135 C22.11 135 11.22 135 0 135 C0 90.45 0 45.9 0 0 Z " transform="translate(376,95)"/>
<path d="M0 0 C1.51815699 0.00015911 3.0363194 0.00585313 4.55444336 0.01586914 C5.35208603 0.01728409 6.1497287 0.01869904 6.97154236 0.02015686 C9.52916146 0.02577223 12.08669429 0.03832727 14.64428711 0.05102539 C16.37410356 0.05603841 18.10392137 0.06060166 19.83374023 0.06469727 C24.08312264 0.07574664 28.33244023 0.09302153 32.58178711 0.11352539 C32.92884453 1.06739891 32.92884453 1.06739891 33.28291321 2.0405426 C35.69778174 8.67649841 38.11542784 15.3114375 40.53466797 21.94580078 C41.43641863 24.41982633 42.33746774 26.89410771 43.23779297 29.36865234 C44.53419295 32.93142579 45.83313732 36.49326276 47.13256836 40.05493164 C47.73274529 41.70689293 47.73274529 41.70689293 48.345047 43.39222717 C50.28532406 48.70292578 52.28315418 53.94722732 54.58178711 59.11352539 C54.8426561 58.40386627 55.10352509 57.69420715 55.37229919 56.96304321 C57.82842772 50.28210891 60.28566483 43.60158392 62.74415493 36.92151833 C64.00811138 33.4870485 65.27163535 30.05242085 66.53417969 26.61743164 C67.75213668 23.30379939 68.97121827 19.99058292 70.19108772 16.67765427 C70.88374625 14.79561495 71.57523302 12.91314452 72.26670837 11.03067017 C72.68706863 9.88963837 73.10742889 8.74860657 73.54052734 7.57299805 C73.91136948 6.56484039 74.28221161 5.55668274 74.66429138 4.51797485 C75.58178711 2.11352539 75.58178711 2.11352539 76.58178711 0.11352539 C88.13178711 0.11352539 99.68178711 0.11352539 111.58178711 0.11352539 C110.7757388 4.94981523 109.69629689 8.7096977 107.79272461 13.11352539 C107.50216187 13.80020294 107.21159912 14.48688049 106.91223145 15.19436646 C105.93327999 17.50343997 104.94499878 19.80840138 103.95678711 22.11352539 C103.24543721 23.78629524 102.53468022 25.45931733 101.82446289 27.13256836 C99.84557004 31.7900346 97.8584105 36.44393499 95.86987305 41.09729004 C93.63411427 46.33263534 91.40517289 51.57088271 89.17553711 56.80883789 C86.30092073 63.5612433 83.42537111 70.31324451 80.5456543 77.06347656 C75.42692788 89.06468274 70.32534232 101.07284606 65.25366211 113.09399414 C64.48694687 114.91048462 64.48694687 114.91048462 63.70474243 116.76367188 C61.24115825 122.60113127 58.78028485 128.43971084 56.32348633 134.2800293 C55.44353278 136.36649389 54.56349215 138.45292176 53.68334961 140.53930664 C53.2803363 141.50007614 52.877323 142.46084564 52.46209717 143.45072937 C52.09505676 144.31954239 51.72801636 145.18835541 51.34985352 146.08349609 C50.87100204 147.22151421 50.87100204 147.22151421 50.38247681 148.38252258 C49.58178711 150.11352539 49.58178711 150.11352539 48.58178711 151.11352539 C45.98819389 151.20204068 43.4213902 151.22878484 40.82788086 151.21118164 C40.05243423 151.20976669 39.27698761 151.20835175 38.4780426 151.20689392 C35.99175217 151.20127884 33.50555051 151.18872385 31.01928711 151.17602539 C29.33764778 151.17101233 27.65600705 151.16644909 25.97436523 151.16235352 C21.84347145 151.15130452 17.71264435 151.13402984 13.58178711 151.11352539 C14.22342941 147.04775684 15.53250316 143.68637868 17.24194336 139.94946289 C17.51010361 139.35791412 17.77826385 138.76636536 18.05455017 138.15689087 C18.91287857 136.26515162 19.7780467 134.37665311 20.64428711 132.48852539 C21.19886618 131.2752316 21.75290648 130.06169139 22.30639648 128.84790039 C22.58380173 128.24092316 22.86120697 127.63394592 23.14701843 127.00857544 C23.71627305 125.74760649 24.27617935 124.4823805 24.82722473 123.21334839 C26.41295168 119.57642801 28.1237478 116.10564393 30.07470703 112.64916992 C33.49852752 106.26237133 36.5055371 100.44770833 34.73974609 93.11206055 C32.92107178 87.58568014 30.35276245 82.43863347 27.76928711 77.23852539 C26.87215879 75.30550644 25.98238967 73.36905683 25.09960938 71.42944336 C23.25001771 67.38063111 21.36935623 63.34852263 19.46655273 59.32446289 C15.12626182 50.07219376 11.20597434 40.64160171 7.26651001 31.21356201 C6.0393693 28.28642802 4.79853054 25.36549028 3.55322266 22.44604492 C2.79051969 20.65034706 2.02790126 18.85461328 1.26538086 17.05883789 C0.92033508 16.25349609 0.57528931 15.4481543 0.2197876 14.6184082 C-1.65925781 10.16791905 -3.19460212 5.78831616 -4.41821289 1.11352539 C-3.41821289 0.11352539 -3.41821289 0.11352539 0 0 Z " transform="translate(876.418212890625,126.886474609375)"/>
<path d="M0 0 C10.76930387 9.22623944 15.30773784 18.86656003 18.1171875 32.6796875 C18.59426875 39.00101407 18.61431013 44.75657437 17.3671875 50.9921875 C-5.4028125 50.9921875 -28.1728125 50.9921875 -51.6328125 50.9921875 C-48.72681786 60.36990366 -48.72681786 60.36990366 -41.80859375 66.09765625 C-37.58780298 67.83295443 -33.1024068 67.52335668 -28.6328125 66.9921875 C-25.26399489 65.30777869 -23.28883743 64.18958149 -21.47338867 60.87597656 C-19.6328125 58.9921875 -19.6328125 58.9921875 -16.0793457 58.53808594 C-14.61394242 58.53871796 -13.14844244 58.56124511 -11.68359375 58.6015625 C-10.91097702 58.60722229 -10.13836029 58.61288208 -9.34233093 58.61871338 C-6.87602621 58.64109423 -4.41117758 58.69129047 -1.9453125 58.7421875 C-0.27280745 58.76225044 1.39972039 58.78050158 3.07226562 58.796875 C7.17113346 58.84096419 11.26891367 58.91000075 15.3671875 58.9921875 C13.89853295 70.31112806 8.31693078 78.92029214 -0.6328125 85.9921875 C-7.13057321 90.15680619 -13.88657652 94.02906757 -21.6328125 94.9921875 C-23.17001953 95.18941406 -23.17001953 95.18941406 -24.73828125 95.390625 C-39.68788325 96.88392598 -54.00485958 94.7760585 -66.3828125 85.8046875 C-76.42959849 77.34136235 -82.37322064 66.96797808 -84.6328125 53.9921875 C-85.87042929 36.70310775 -84.62811207 22.57324264 -74.6328125 7.9921875 C-74.0553125 7.1053125 -73.4778125 6.2184375 -72.8828125 5.3046875 C-54.37997385 -13.71211889 -21.10149718 -16.09223969 0 0 Z M-49.43359375 25.078125 C-51.0101892 27.34321077 -51.0101892 27.34321077 -51.6328125 31.9921875 C-39.7528125 31.9921875 -27.8728125 31.9921875 -15.6328125 31.9921875 C-16.57717521 26.32601122 -17.47232469 23.65557807 -21.6328125 19.9921875 C-32.03922177 13.87077028 -41.82766162 16.33429751 -49.43359375 25.078125 Z " transform="translate(585.6328125,136.0078125)"/>
<path d="M0 0 C10.89 0 21.78 0 33 0 C33 44.55 33 89.1 33 135 C22.11 135 11.22 135 0 135 C0 90.45 0 45.9 0 0 Z " transform="translate(821,95)"/>
<path d="M0 0 C10.89 0 21.78 0 33 0 C33 44.55 33 89.1 33 135 C22.11 135 11.22 135 0 135 C0 90.45 0 45.9 0 0 Z " transform="translate(627,95)"/>
</g>
</svg>
